<svg
  version="1.1"
  id="Layer_1"
  xmlns="http://www.w3.org/2000/svg"
  xmlns:xlink="http://www.w3.org/1999/xlink"
  x="0px"
  y="0px"
  width="100%"
  viewBox="0 0 1024 1024"
  enable-background="new 0 0 1024 1024"
  xml:space="preserve"
>
  <path
    fill="#000000"
    opacity="1.000000"
    stroke="none"
    d="
M756.936890,323.292816 
	C767.285522,361.408447 777.504639,399.141937 787.694885,436.883270 
	C788.384033,439.435730 789.320312,441.966003 788.920593,444.710785 
	C787.959900,451.307800 782.765991,456.452942 776.357971,457.112274 
	C770.125061,457.753571 763.959961,453.574860 761.782043,447.232758 
	C758.542664,437.799194 758.477173,438.681427 748.651550,437.952332 
	C728.384094,436.448425 711.086304,445.780579 692.953125,451.963806 
	C671.365723,459.324890 649.994446,467.325165 628.594238,475.223846 
	C625.074646,476.522919 622.871765,475.796478 620.282532,473.205994 
	C590.192017,443.101044 553.692261,429.168884 511.315216,431.497437 
	C447.586945,434.999146 392.650970,484.697083 383.514893,548.036072 
	C380.900513,566.160950 373.375214,582.025024 366.674103,598.408203 
	C353.433777,630.778625 339.708954,662.950684 326.323975,695.262573 
	C324.843964,698.835327 322.965332,700.398010 318.946411,700.344727 
	C287.958954,699.934326 256.969055,699.687805 225.979233,699.509155 
	C222.856186,699.491150 221.756317,698.212097 221.848953,695.363770 
	C221.854340,695.197510 221.833847,695.030273 221.840820,694.864136 
	C222.477066,679.732666 219.351624,682.363464 234.360413,678.639221 
	C252.772919,674.070374 271.153687,669.373474 289.573029,664.832642 
	C292.868256,664.020264 295.150146,662.587830 296.576050,659.261292 
	C308.780609,630.788147 321.032043,602.333984 333.525391,573.986877 
	C335.983917,568.408508 332.336365,568.209900 328.938141,567.467102 
	C309.312988,563.176941 293.784576,552.788879 282.415802,536.242737 
	C280.724396,533.781067 279.352356,531.091553 277.938660,528.450562 
	C276.941498,526.587708 276.060211,524.972839 273.393738,525.778625 
	C270.970612,526.510925 269.053223,527.302490 269.229858,530.389282 
	C269.480072,534.760437 268.906555,539.070312 267.143097,543.100708 
	C264.755646,548.557251 260.284546,549.777710 255.375900,546.432373 
	C254.419052,545.780273 253.441559,545.062500 252.720764,544.174438 
	C241.945633,530.898560 237.551910,515.758728 240.738602,498.934387 
	C242.438950,489.957306 249.049301,488.360840 255.656403,494.646545 
	C257.979614,496.856812 259.812439,499.439636 261.296417,502.239960 
	C262.506317,504.523132 263.653809,505.903625 266.710571,504.943848 
	C269.674927,504.013092 270.027008,502.207672 269.963867,499.658447 
	C269.640991,486.626038 272.015839,474.146362 278.003723,462.486969 
	C289.344208,440.405151 307.960144,427.262268 331.051514,419.837646 
	C337.187286,417.864746 343.554443,416.611511 349.734558,415.048309 
	C350.057068,412.547028 350.129486,410.204803 350.690002,407.985840 
	C352.125793,402.302063 356.779388,398.313263 362.293884,397.745789 
	C368.378357,397.119690 373.948090,399.704132 376.218597,405.263611 
	C377.949554,409.501984 380.257751,410.227264 384.283478,409.099548 
	C387.953918,408.071381 391.770508,407.520813 395.550659,406.942719 
	C398.350372,406.514526 398.973633,404.985779 398.737213,402.393280 
	C397.844360,392.603241 390.345825,384.791382 380.456665,383.270874 
	C371.903809,381.955841 363.182739,382.365753 354.684784,380.399719 
	C341.614288,377.375793 334.202026,368.685303 330.160004,356.519012 
	C328.951263,352.880829 329.940186,349.709625 333.642334,348.261292 
	C337.380920,346.798676 340.293335,348.438446 341.610931,352.103516 
	C346.344788,365.271667 356.618744,369.401031 369.474213,369.741394 
	C374.291534,369.868958 379.118652,370.341858 383.900299,370.969482 
	C398.617126,372.901123 407.030396,381.631775 410.292572,395.811310 
	C412.576172,405.737183 411.284790,404.041473 420.651428,402.343536 
	C463.197479,394.631042 505.683685,386.588623 548.195801,378.688354 
	C555.815430,377.272369 555.824890,377.323364 556.685120,369.836670 
	C557.381287,363.777771 562.068787,359.078308 568.502502,357.989044 
	C574.187317,357.026581 581.225464,360.529266 582.906128,366.336761 
	C584.383179,371.440521 586.855042,371.603180 591.270325,370.769196 
	C627.712341,363.885925 664.232849,357.413513 700.641785,350.362762 
	C711.222290,348.313782 719.914856,341.480530 729.338928,336.570221 
	C731.140869,335.631317 730.925537,333.774841 730.545410,332.105896 
	C730.028381,329.835663 729.231262,327.619080 728.848145,325.330322 
	C727.544861,317.545013 731.933777,310.961487 739.507019,309.138947 
	C746.232971,307.520264 753.140015,311.575012 755.559509,318.601166 
	C756.045776,320.013275 756.390503,321.474152 756.936890,323.292816 
z"
  />
  <path
    fill="#000000"
    opacity="1.000000"
    stroke="none"
    d="
M550.941772,696.194214 
	C479.764404,712.107849 411.262695,669.806519 394.322632,599.812683 
	C376.382385,525.686279 426.858246,451.513885 502.444550,440.931580 
	C572.727356,431.091766 638.214722,479.275146 649.197449,548.907227 
	C659.536804,614.460571 620.139832,676.213257 556.156677,694.742126 
	C554.557007,695.205322 552.953735,695.656494 550.941772,696.194214 
M565.751099,622.750305 
	C556.167419,613.996887 546.609680,605.214844 536.972839,596.520386 
	C535.486023,595.178894 534.290771,592.760254 531.579773,593.932190 
	C528.759094,595.151611 529.380554,597.761475 529.376099,600.009888 
	C529.339233,618.483459 529.478088,636.958618 529.256165,655.429626 
	C529.200439,660.072327 530.848206,661.367554 535.138428,660.546143 
	C544.498291,658.754211 553.584290,656.121704 562.054749,651.705566 
	C569.102905,648.031006 575.890442,643.929565 581.876587,637.732544 
	C576.450989,632.692200 571.360779,627.963562 565.751099,622.750305 
M529.349731,540.120850 
	C529.508118,542.030579 528.747070,544.344116 531.112244,545.398438 
	C533.590149,546.503113 535.173462,544.672668 536.751282,543.226868 
	C550.725525,530.421509 564.689392,517.604797 578.625977,504.758514 
	C579.675964,503.790649 581.110779,502.994019 581.105042,500.740356 
	C568.657043,489.495453 553.822083,482.555267 537.169434,479.384369 
	C529.452454,477.914917 529.366821,478.090179 529.351746,486.320679 
	C529.319519,503.948059 529.346924,521.575500 529.349731,540.120850 
M511.852020,621.500000 
	C511.852203,613.682922 511.856140,605.865784 511.849579,598.048706 
	C511.848145,596.347900 511.742004,594.702576 509.881500,593.834656 
	C507.899017,592.909790 506.743195,594.280457 505.546906,595.381836 
	C491.358215,608.445496 477.235962,621.581787 462.973267,634.563904 
	C460.132690,637.149414 460.176086,638.880310 463.168732,641.213928 
	C476.009399,651.226929 490.331085,657.801758 506.430359,660.487427 
	C510.211578,661.118164 511.967163,660.121521 511.901154,655.929626 
	C511.725830,644.788879 511.847473,633.643555 511.852020,621.500000 
M469.609558,510.882080 
	C481.497253,521.802185 493.372803,532.735657 505.290497,543.622925 
	C506.555847,544.778809 507.616974,546.734619 509.894257,545.700256 
	C512.258850,544.626221 511.819153,542.418457 511.822693,540.481384 
	C511.856445,522.006592 511.874268,503.531738 511.846832,485.056976 
	C511.837921,479.057587 511.196960,478.395081 505.076416,479.337860 
	C491.345428,481.452972 478.938538,486.914886 467.671082,494.954132 
	C464.917175,496.919006 461.744934,498.527130 459.770660,501.930176 
	C462.971924,504.837402 466.032471,507.616821 469.609558,510.882080 
M598.252319,618.777039 
	C605.023193,608.481445 609.070068,597.107727 611.452271,585.101562 
	C612.604309,579.295471 611.788330,578.367737 605.873047,578.362793 
	C587.576172,578.347351 569.279175,578.339417 550.982483,578.406494 
	C549.313416,578.412598 547.286438,577.636414 545.899170,579.838867 
	C546.772766,581.837280 548.523193,583.144897 550.080505,584.574768 
	C563.187195,596.608521 576.320862,608.612732 589.437317,620.635803 
	C594.099548,624.909424 594.088440,624.921936 598.252319,618.777039 
M442.662354,617.882996 
	C447.048126,625.056335 447.126282,625.142761 453.364105,619.501404 
	C466.315216,607.788696 479.186920,595.988037 492.053223,584.182129 
	C493.343262,582.998413 495.046936,582.012939 495.210419,579.791016 
	C494.046631,578.311462 492.356049,578.374268 490.718384,578.373962 
	C472.088318,578.370483 453.458069,578.419800 434.828278,578.354736 
	C430.950958,578.341187 429.521454,579.639526 430.135071,583.747192 
	C431.930908,595.768921 436.104645,606.862854 442.662354,617.882996 
M609.854126,547.545166 
	C606.821716,535.727356 602.089661,524.769836 593.779907,514.724548 
	C577.285950,529.873108 561.297424,544.557373 545.308960,559.241638 
	C545.644714,559.777771 545.980469,560.313843 546.316223,560.849915 
	C548.283508,560.849915 550.250854,560.850952 552.218140,560.849731 
	C568.208984,560.840088 584.199890,560.832458 600.190735,560.819458 
	C612.807983,560.809204 612.807983,560.806152 609.854126,547.545166 
M458.224945,524.285950 
	C455.764038,522.040771 453.179169,519.914856 450.874786,517.519104 
	C448.223236,514.762512 446.390594,515.592346 444.625946,518.408081 
	C440.637634,524.772156 436.934174,531.287231 434.503418,538.423218 
	C432.107605,545.456604 429.867249,552.544373 429.914520,560.299011 
	C451.929993,560.299011 473.583923,560.299011 495.237823,560.299011 
	C495.473846,559.865906 495.709869,559.432800 495.945862,558.999695 
	C483.545013,547.587280 471.144165,536.174866 458.224945,524.285950 
z"
  />
  <path
    fill="#000000"
    opacity="1.000000"
    stroke="none"
    d="
M369.195435,698.459717 
	C372.638855,698.146423 375.944305,697.076965 378.887085,700.283813 
	C375.376495,703.014160 372.013062,702.235413 368.825592,701.280334 
	C367.449982,700.868042 367.640045,699.497803 369.195435,698.459717 
z"
  />
</svg>
