<svg
  version="1.1"
  id="Layer_1"
  xmlns="http://www.w3.org/2000/svg"
  xmlns:xlink="http://www.w3.org/1999/xlink"
  x="0px"
  y="0px"
  width="250px"
  viewBox="0 0 1024 1024"
  enable-background="new 0 0 1024 1024"
  xml:space="preserve"
>
  <path
    fill="#000000"
    opacity="1.000000"
    stroke="none"
    d="
M626.249023,841.396484 
	C614.404541,848.048828 602.322083,851.384705 588.591797,847.850281 
	C584.800354,858.467773 581.028320,869.100647 577.206360,879.715576 
	C572.919312,891.621948 568.653809,903.536743 564.247498,915.399170 
	C561.939453,921.612793 559.596985,923.194458 553.032532,923.243774 
	C546.534424,923.292480 540.022095,923.389160 533.539673,923.033569 
	C527.573181,922.706299 526.596008,920.793762 528.908447,915.309448 
	C530.796143,910.832520 533.885681,907.469604 538.266479,905.329590 
	C544.097656,902.481079 548.891541,898.361450 552.385620,892.945068 
	C561.198914,879.282837 568.844910,865.136658 570.108032,848.423035 
	C570.575073,842.243408 569.462585,836.895264 564.232178,832.904907 
	C559.199890,829.065735 554.278137,825.080566 549.338989,821.120728 
	C546.694885,819.000916 544.664490,818.791748 542.304504,821.899475 
	C535.970215,830.240723 528.093079,836.610046 518.449097,841.124451 
	C506.031219,846.937317 494.863586,854.851929 484.476929,863.840393 
	C482.251312,865.766357 480.696991,867.999268 479.782349,870.758179 
	C478.237030,875.419373 475.557404,879.011108 470.635620,880.579712 
	C467.086731,881.710754 466.855377,883.811768 469.015045,886.606140 
	C472.297913,890.853699 471.829376,895.250488 469.375366,899.696045 
	C466.068268,905.687073 461.482330,910.411072 455.398468,913.560852 
	C450.628357,916.030457 449.470154,915.499146 448.221680,910.150574 
	C446.802887,904.072021 446.668854,897.879761 448.425079,891.884766 
	C451.139221,882.620117 453.685699,873.323486 455.795502,863.901978 
	C456.635010,860.153198 458.776459,857.420166 462.289337,855.523804 
	C476.480072,847.863525 488.764984,837.630493 500.448608,826.645264 
	C507.736603,819.792847 508.209412,817.367920 503.429016,808.368896 
	C496.161011,794.686890 488.875793,781.003784 481.160675,767.572266 
	C473.153137,753.631775 471.614410,738.704834 473.128967,723.150330 
	C473.402069,720.345520 473.858093,717.545776 474.436981,714.787109 
	C474.993011,712.137390 473.250946,710.813538 471.693420,709.326599 
	C461.560394,699.653259 449.627991,692.733032 437.056091,686.826721 
	C417.000702,677.404785 398.479309,666.031006 383.474091,649.200073 
	C374.406372,639.028992 363.854095,630.192871 354.167938,620.556885 
	C349.510284,615.923340 344.906158,613.647888 337.795288,614.974060 
	C326.478088,617.084473 314.920532,616.134277 303.467773,614.659119 
	C299.528320,614.151611 295.481873,614.292358 291.492432,614.410828 
	C288.077972,614.512146 286.715668,616.559204 287.607574,619.829834 
	C290.419128,630.139648 292.981903,640.529663 302.591583,647.231445 
	C305.992584,649.603271 307.201721,653.670898 308.260284,657.566162 
	C309.466248,662.003723 312.126587,665.634827 316.761200,665.441284 
	C326.480774,665.035400 329.924408,671.608948 331.661865,679.209167 
	C332.702911,683.763184 333.356323,688.419373 332.255157,693.052307 
	C331.393463,696.677612 329.184662,698.129822 325.602234,696.172363 
	C319.752716,692.976135 313.999969,689.813599 310.178192,683.870728 
	C306.800537,678.618469 301.685333,674.957581 296.374603,671.759033 
	C290.625641,668.296631 287.084839,663.412537 285.469147,656.898865 
	C282.680695,645.657715 278.351624,635.140137 271.349213,625.717224 
	C264.404816,616.372375 265.739166,606.707214 271.405975,597.179932 
	C272.738129,594.940247 274.773956,594.174072 277.106262,593.593140 
	C292.769775,589.691895 308.420776,585.740356 324.072815,581.793030 
	C325.667053,581.390991 327.241150,580.909180 328.387054,580.587280 
	C329.440033,579.463684 329.099915,578.645264 328.887543,577.858337 
	C321.506165,550.508179 319.465637,522.192932 314.055389,494.467926 
	C311.703339,482.414734 306.919678,475.387329 295.182892,472.289673 
	C284.893982,469.574158 274.401459,467.765198 264.184814,464.673828 
	C258.776337,463.037323 252.915085,464.027374 247.550385,466.355682 
	C242.608246,468.500580 237.932877,468.290955 233.288177,465.346497 
	C225.883530,460.652435 217.883545,456.724854 212.621307,448.553741 
	C217.179657,445.570953 222.103836,444.777557 226.877396,443.993195 
	C247.617569,440.585205 268.150909,439.889160 288.263123,447.979095 
	C294.847565,450.627563 301.991058,452.026337 308.986877,453.475067 
	C317.107056,455.156555 322.863037,459.542786 326.644470,466.805756 
	C332.260468,477.592377 338.015442,488.307526 343.542969,499.138947 
	C345.771210,503.505341 348.395203,505.125977 353.505829,503.408630 
	C363.096619,500.185822 370.891388,494.270844 378.331604,487.868134 
	C389.000671,478.686798 397.893829,467.867645 405.591583,456.097351 
	C407.336029,453.430084 409.422302,450.668091 407.573151,446.313446 
	C404.676483,453.714813 397.612183,454.734253 391.902649,457.781464 
	C389.968842,458.813538 387.762421,459.977112 385.714783,459.225220 
	C379.420959,456.914093 374.382965,460.151398 369.116058,462.472748 
	C365.307007,464.151611 361.571228,465.996033 357.790039,467.739075 
	C354.574249,469.221497 351.712006,468.962402 349.192657,466.180145 
	C348.210815,465.095886 346.937775,464.206543 345.657410,463.472626 
	C337.928192,459.042175 336.533386,455.940125 338.837799,447.565613 
	C341.079376,439.419525 344.631348,432.041809 350.781464,425.974121 
	C358.899200,417.965240 364.047974,408.099701 367.567780,397.353943 
	C369.328766,391.977692 371.753265,387.312714 377.208221,384.634338 
	C380.568970,382.984253 382.591248,379.705048 384.560791,376.607086 
	C390.268402,367.629395 398.441345,361.090424 406.064545,353.679962 
	C409.196869,356.894287 408.031616,360.914215 410.140961,364.133301 
	C414.377899,363.402466 416.394257,359.263702 419.768829,357.129425 
	C421.358795,356.123810 422.524170,353.579712 424.806244,354.847687 
	C427.069031,356.104919 425.758423,358.409882 425.532257,360.304535 
	C425.197876,363.105499 424.826111,365.902008 424.467316,368.700043 
	C423.967804,372.595062 426.364990,374.345642 429.463562,375.803101 
	C439.713409,380.624237 449.931000,385.515289 460.118134,390.467560 
	C463.148743,391.940857 467.015106,392.875549 465.750092,397.840698 
	C465.438782,399.062683 466.908081,399.751434 467.790985,400.468567 
	C470.507111,402.674713 473.196533,404.921783 476.013672,406.993347 
	C479.705444,409.708069 482.395813,412.338928 480.506714,417.770996 
	C479.349274,421.099182 482.094940,424.421021 483.541260,427.567810 
	C485.594879,432.036133 487.411865,436.224640 484.109741,441.111877 
	C482.088531,444.103363 484.479889,447.568054 484.697083,450.830688 
	C484.961060,454.795929 485.829437,458.717163 486.300171,462.673615 
	C486.666351,465.751190 486.403839,468.557800 483.339630,470.545441 
	C481.146393,471.968018 481.417572,474.581665 481.250641,476.922363 
	C480.678955,484.938324 481.732300,493.260437 476.891479,500.565369 
	C481.354279,497.389984 484.663513,493.495972 486.255585,488.216003 
	C489.532654,477.348114 493.158997,474.719391 504.611511,474.661011 
	C506.929047,474.649200 509.246674,474.659302 511.957001,474.659302 
	C511.959473,470.770111 513.950439,469.427338 517.483521,469.387634 
	C519.419678,469.365906 521.308472,468.288788 522.530823,466.501617 
	C524.540039,463.564240 523.483337,461.020325 519.955811,460.343170 
	C511.244720,458.670898 511.246552,458.628387 511.721283,450.231201 
	C511.856812,447.834198 512.473083,445.397827 509.591400,443.649292 
	C507.422882,442.333496 509.295471,440.307220 509.947205,438.759705 
	C511.491455,435.092896 512.640503,432.128998 507.101349,430.516815 
	C503.050964,429.337952 502.888245,426.643250 506.140076,423.914154 
	C507.631927,422.662079 509.427856,421.772400 511.052490,420.739594 
	C511.111938,418.492920 509.074188,418.114319 507.996246,416.999390 
	C503.932648,412.796539 502.937531,407.351501 505.482635,402.301666 
	C507.625885,398.049194 512.798828,395.587280 518.199280,396.277039 
	C521.188110,396.658813 524.081421,397.417847 526.852051,398.615143 
	C534.340271,401.851105 541.865967,405.004700 549.291443,408.378784 
	C551.690918,409.469116 554.011230,410.916809 556.045959,412.591888 
	C561.899109,417.410522 562.079956,422.697205 555.874878,426.906464 
	C550.746155,430.385590 549.529968,434.647919 550.634094,440.171021 
	C551.306580,443.534637 550.139709,446.791290 550.205444,450.118805 
	C550.248230,452.280487 550.044006,454.432068 550.972107,456.500702 
	C553.558899,462.266571 557.119141,462.945587 560.983032,458.070770 
	C566.669312,450.896820 572.277466,443.658875 576.014221,435.165924 
	C579.350952,427.582062 580.915100,419.822571 580.867493,411.448822 
	C580.784180,396.796814 581.463379,382.139679 581.872559,367.486115 
	C581.996399,363.051514 581.421021,358.942230 578.535339,355.262329 
	C572.560730,347.643372 570.799988,339.549164 576.831909,331.074463 
	C578.436646,328.819824 578.510071,326.765686 577.897888,324.104340 
	C564.627319,266.413086 551.472473,208.695221 538.294800,150.982620 
	C535.074768,136.880066 531.976013,122.747955 528.556274,108.693954 
	C527.535034,104.496910 529.510559,103.696236 532.819763,103.505127 
	C533.909424,103.442200 534.932800,103.610649 535.195557,104.789787 
	C536.086304,108.786858 539.164734,108.467361 542.221619,108.710724 
	C581.100403,111.805862 618.499512,120.386940 653.161255,138.957687 
	C659.284546,142.238388 661.120056,147.334824 658.847717,154.666656 
	C657.764587,158.161392 656.638794,161.657318 655.260315,165.041916 
	C653.988953,168.163483 655.139160,169.657654 658.066040,170.565994 
	C666.680115,173.239288 675.466797,174.939285 684.455505,175.720657 
	C694.067444,176.556198 703.696655,177.414871 713.070801,179.843704 
	C723.337891,182.503922 725.929504,187.486115 722.567688,197.600357 
	C722.094971,199.022598 721.628113,200.448166 721.102234,201.851105 
	C717.909119,210.370026 717.895325,210.393494 726.768616,213.295349 
	C740.257263,217.706619 754.403992,219.257187 768.104065,222.756271 
	C783.751526,226.752716 797.693054,233.320877 808.358704,246.223267 
	C813.265930,252.159714 813.562073,258.678772 813.794800,265.384521 
	C814.800293,294.355469 810.561768,322.181152 794.741028,347.256897 
	C793.251587,349.617737 791.898560,352.152313 789.626892,353.807495 
	C787.876282,353.698730 787.374634,352.321777 786.604370,351.287720 
	C775.050964,335.777222 759.171692,328.561646 740.276489,327.355225 
	C725.928345,326.439056 711.766907,329.973541 697.399963,329.336884 
	C686.554932,328.856232 675.821106,327.835999 665.368652,324.752502 
	C661.835510,323.710205 658.484192,322.217682 655.410156,320.179260 
	C651.558472,317.625183 649.383972,314.310852 649.575500,309.356812 
	C649.884460,301.367462 649.441040,293.344757 649.868896,285.365814 
	C650.138733,280.333740 648.182922,279.147308 643.546631,279.264435 
	C636.070312,279.453339 628.573975,279.615601 621.107605,278.384430 
	C610.790955,276.683228 608.670288,274.404816 608.779053,264.116913 
	C608.821350,260.117249 608.828979,256.117126 608.889038,252.117752 
	C608.924011,249.791550 608.252380,248.008789 605.516724,248.400101 
	C593.678162,250.093445 582.116882,252.916962 570.344849,256.691559 
	C573.849182,272.164093 577.219238,287.061615 580.598572,301.957092 
	C582.180237,308.928864 583.823303,315.887054 585.351135,322.870544 
	C586.013855,325.900085 587.035522,328.260498 590.835754,327.755676 
	C592.428223,327.544159 593.827576,328.192596 594.639893,329.645599 
	C600.052795,339.327789 605.491516,348.736877 599.445190,360.532532 
	C595.158508,368.895355 597.913635,377.793640 599.895874,386.425842 
	C609.197571,426.931000 618.432251,467.451569 627.762573,507.950073 
	C628.443176,510.904297 628.697815,513.249329 624.970825,514.024414 
	C621.198975,514.808838 621.012268,512.015076 620.451904,509.579132 
	C615.530029,488.182556 610.614624,466.784485 605.681213,445.390594 
	C605.390442,444.129639 604.960999,442.900635 604.340332,440.784943 
	C598.638611,453.332611 594.333862,465.516571 589.961853,477.665771 
	C588.489380,481.757568 586.701904,485.623901 584.525085,489.398468 
	C577.909607,500.869476 576.078369,513.836060 573.405090,526.518616 
	C572.445557,531.070923 571.801758,535.690918 570.797546,540.232178 
	C570.294373,542.507690 570.534607,543.934631 572.887756,545.035339 
	C576.295349,546.629211 577.621521,549.833618 577.266541,553.346008 
	C576.281616,563.091980 575.056702,572.815186 573.803223,582.531433 
	C573.455017,585.230530 571.865723,587.007629 569.002380,587.581177 
	C567.227966,587.936584 565.573364,588.455017 565.176270,590.838501 
	C562.769897,605.283386 557.520691,618.385498 545.860901,628.818970 
	C548.621826,631.090515 550.833740,633.031921 553.169128,634.811340 
	C564.435425,643.395630 575.852112,651.789490 586.464722,661.196594 
	C595.936401,669.592468 605.134583,678.676514 607.160400,691.581970 
	C608.669006,701.192383 612.885071,704.527344 622.154358,706.262268 
	C643.127930,710.187927 657.190125,723.837280 666.738159,742.360657 
	C670.918213,750.470215 675.512939,758.480774 676.543396,767.849365 
	C676.786011,770.055176 676.703674,772.146240 675.934570,774.174988 
	C674.205139,775.626892 673.459900,772.766846 671.680237,773.450928 
	C671.260986,775.535889 670.590515,777.760925 670.392944,780.027161 
	C668.652893,799.985168 660.478088,817.155884 647.842712,832.403320 
	C646.321899,834.238586 644.961914,836.526917 642.015320,836.174561 
	C640.626038,834.045959 642.284363,832.164368 642.078064,829.834106 
	C635.109619,831.450256 632.164795,838.206055 626.249023,841.396484 
M600.299072,735.688477 
	C592.774841,752.458435 581.717651,766.780762 569.380005,780.202637 
	C567.627075,782.109741 566.620178,783.802734 566.996277,786.761292 
	C569.167114,803.839844 579.144470,815.594055 592.679871,824.810852 
	C599.470581,829.434998 612.598083,823.449097 614.513306,815.248596 
	C614.773071,814.136597 614.829407,812.913025 614.679260,811.780945 
	C614.154053,807.820435 611.401855,806.526428 607.886658,808.413513 
	C605.981445,809.436340 604.575134,811.762512 601.013062,810.898315 
	C602.900208,808.224487 604.450134,805.944519 606.086365,803.728210 
	C609.290894,799.387451 612.276917,794.740845 612.529663,789.325317 
	C613.289856,773.036926 614.255493,756.725891 613.538452,740.422180 
	C613.268738,734.287903 610.648010,728.764709 605.301636,724.198120 
	C603.501526,728.344910 602.056396,731.673889 600.299072,735.688477 
M483.498383,544.174011 
	C481.279938,544.690918 478.912689,544.785767 476.857330,546.478577 
	C477.628082,551.198425 480.163177,555.067993 482.810944,558.841736 
	C484.240723,560.879456 486.486084,561.069458 488.658752,560.340820 
	C490.777161,559.630310 491.663910,557.862732 491.701782,555.668762 
	C491.744873,553.172729 491.324982,550.733276 491.009338,548.263977 
	C490.443817,543.839661 488.411926,542.422546 483.498383,544.174011 
z"
  />
</svg>
