<svg
  version="1.1"
  id="Layer_1"
  xmlns="http://www.w3.org/2000/svg"
  xmlns:xlink="http://www.w3.org/1999/xlink"
  x="0px"
  y="0px"
  width="80px"
  viewBox="0 0 480 1024"
  enable-background="new 0 0 480 1024"
  xml:space="preserve"
>
  <path
    fill="#000000"
    opacity="1.000000"
    stroke="none"
    d="
M209.000000,0.999999 
	C216.354248,1.000000 223.708496,1.000000 231.843933,1.178865 
	C247.952927,5.258416 262.289276,11.687217 276.397522,19.104454 
	C272.538971,11.668530 275.374847,6.153601 280.000000,1.000000 
	C282.700012,1.000000 285.400024,1.000000 288.747559,1.273590 
	C290.983429,3.021820 292.652130,5.071031 294.891968,4.499895 
	C299.777161,3.254209 303.239197,5.874450 306.860687,8.164273 
	C316.009155,13.948769 324.461761,20.785292 333.914673,26.113214 
	C340.361572,29.746847 341.694641,32.651283 340.216370,39.902714 
	C338.617279,47.746914 330.726318,51.785484 323.663788,48.308273 
	C317.135742,45.094223 310.332489,42.650963 303.026886,40.667828 
	C306.324554,44.524101 308.714691,48.378647 305.402679,53.209789 
	C305.254425,53.426037 305.429138,53.857777 305.439484,54.189568 
	C305.598785,59.313484 307.712524,64.734596 303.125763,69.146820 
	C302.831421,69.429970 302.843079,70.086220 302.808075,70.575745 
	C302.270813,78.085052 302.274506,78.085320 294.663452,78.399559 
	C286.954346,78.717857 283.625366,83.095810 285.265228,90.679436 
	C286.225861,95.121841 288.230682,99.149261 290.132385,103.215691 
	C292.130219,107.487656 291.191437,110.734634 286.759155,112.532936 
	C283.523865,113.845581 282.095398,115.958725 282.364929,119.460297 
	C282.476654,120.911118 282.006866,122.409294 281.781982,123.882950 
	C280.872894,129.840302 278.988190,135.239807 275.687531,140.521927 
	C272.775513,145.182098 274.732971,152.075211 267.941132,156.562073 
	C278.116943,158.100601 282.836090,164.523056 288.051422,170.614609 
	C289.167511,168.281937 288.497528,166.718170 288.037537,165.152496 
	C286.583984,160.204636 285.111115,155.262451 283.653992,150.315628 
	C283.055603,148.284210 282.609924,146.213974 285.424194,145.532501 
	C287.998474,144.909119 288.869080,146.480179 289.462769,148.722458 
	C291.845154,157.720062 294.940735,166.580765 296.121979,175.821243 
	C297.115845,183.596115 301.315460,188.181458 308.265717,190.761261 
	C313.626038,192.750931 318.569122,195.428101 322.976227,199.080231 
	C324.400909,200.260849 326.024292,201.467316 325.999054,203.459061 
	C325.902893,211.054428 330.946594,215.058655 336.419434,218.821945 
	C340.845367,221.865356 346.465759,224.174881 344.128082,231.397827 
	C344.005463,231.776688 344.342163,232.369415 344.586578,232.792328 
	C350.007294,242.170502 352.338165,252.554993 354.519714,263.000488 
	C355.119232,265.871063 356.372498,268.652496 359.465240,269.377777 
	C365.053833,270.688416 369.330170,274.064026 373.606323,277.525482 
	C375.199768,278.815338 376.706909,279.736023 379.016510,279.284912 
	C383.840973,278.342621 387.242157,280.200562 387.651154,284.818390 
	C388.025177,289.041565 390.449432,290.880310 393.473694,292.696716 
	C399.341522,296.220978 403.420685,301.530243 406.712524,307.257324 
	C408.303558,310.025391 409.509399,310.774414 412.455780,309.984650 
	C420.327545,307.874542 428.261902,305.996735 436.178650,304.056335 
	C439.346283,303.279968 442.150513,303.814941 444.185211,306.612701 
	C446.313599,309.539276 444.784943,311.953674 443.031464,314.304657 
	C438.550659,320.312134 434.132599,326.368744 429.536591,332.287048 
	C427.264252,335.213165 427.217834,337.441376 430.308868,339.864014 
	C446.955475,352.910736 463.348572,366.289856 481.000000,378.000000 
	C481.000000,383.354919 481.000000,388.709869 480.684265,394.409241 
	C473.644897,390.398590 467.710815,385.118500 461.663879,379.866089 
	C450.112244,369.832306 437.809448,360.662964 425.807220,351.148956 
	C424.395905,350.030243 423.100098,349.551331 421.436646,351.119446 
	C419.976105,352.496338 410.097931,351.329529 408.733917,349.947052 
	C407.518799,348.715485 407.546661,347.319458 408.034424,345.787720 
	C409.502869,341.176422 406.671112,336.129852 401.937500,334.782440 
	C400.668945,334.421326 399.359589,334.592590 398.788696,335.633911 
	C396.166992,340.415894 392.924774,338.039368 389.620331,336.715607 
	C387.793762,335.983856 386.607025,333.995911 383.863007,334.115723 
	C382.147491,337.538727 381.539978,340.882080 383.861450,344.648682 
	C392.563141,358.767242 390.736298,372.834106 382.206726,386.031525 
	C372.586182,400.916901 359.929596,404.146515 343.831238,396.912659 
	C339.429749,394.934875 335.028473,392.935272 330.751801,390.706390 
	C325.243958,387.835785 324.926758,387.898224 322.989502,394.062683 
	C322.091705,396.919525 321.249512,399.799408 320.209747,402.604950 
	C317.786469,409.143768 316.192627,410.269226 309.185547,410.345062 
	C301.403168,410.429321 293.443329,410.042542 290.289917,419.570618 
	C290.241730,419.716156 290.093536,419.842804 289.965790,419.945740 
	C287.079468,422.272278 287.082886,425.171783 287.848846,428.522003 
	C289.331940,435.008972 290.750275,441.572113 290.277588,448.273254 
	C289.957520,452.810760 291.380798,456.189545 294.759369,459.253998 
	C299.985260,463.993835 304.196014,469.523376 306.253326,476.490875 
	C308.619507,484.504486 306.666199,492.044281 303.695496,499.344238 
	C301.651550,504.366821 301.381287,509.168304 302.716064,514.368713 
	C304.491058,521.284058 305.688446,528.346497 307.417694,535.274963 
	C310.214935,546.482422 308.918671,558.193787 311.707764,569.362061 
	C314.277222,579.650818 314.767395,590.059326 314.342468,600.571167 
	C314.189117,604.364563 312.596039,608.068604 313.719086,611.944885 
	C317.527679,625.090820 319.513916,638.570435 321.005859,652.136841 
	C322.853607,668.938721 320.702362,684.094910 304.750824,694.140259 
	C299.919037,697.182922 298.857025,702.247437 299.751587,707.826477 
	C301.619568,719.475769 303.647919,731.112976 305.028442,742.823730 
	C307.187744,761.139893 298.909454,776.588013 290.145538,791.571350 
	C285.163452,800.088989 283.185394,808.798218 284.735504,818.323608 
	C285.571686,823.461487 286.197021,828.578064 285.252747,833.676575 
	C283.809418,841.469971 283.301147,849.907471 275.641052,854.761047 
	C271.754944,857.223389 272.140350,859.140564 275.005310,862.098938 
	C278.409180,865.613831 279.819000,870.077637 279.066742,874.981140 
	C277.748383,883.574646 272.901550,887.574463 263.192993,887.189209 
	C257.522034,886.964111 254.768951,888.996826 253.178116,894.408386 
	C250.036224,905.096252 246.350891,915.627380 242.750122,926.175476 
	C241.665390,929.353088 241.023590,932.187012 243.835083,934.863159 
	C245.550735,936.496277 246.204987,939.203857 245.084717,940.877625 
	C241.525360,946.195435 244.318008,950.013794 247.138794,954.212952 
	C248.792801,956.675354 249.637085,959.666138 251.134750,962.251831 
	C256.261078,971.102417 262.086029,979.328430 271.049286,984.867615 
	C282.177429,991.744629 286.522003,1002.198669 286.353546,1014.897522 
	C286.302490,1018.747742 284.604919,1020.946167 280.639496,1021.827393 
	C275.118744,1023.054199 269.373444,1023.060059 264.000000,1025.000000 
	C254.312439,1025.000000 244.624878,1025.000000 234.170456,1024.805542 
	C230.104156,1023.473450 226.746124,1022.479309 223.519821,1021.162476 
	C219.325897,1019.450684 215.862534,1016.765259 215.333374,1011.915466 
	C214.771179,1006.762695 211.704895,1005.375122 207.125626,1005.348267 
	C200.027710,1005.306641 193.286438,1003.421570 186.824509,1000.644592 
	C181.082123,998.176819 179.127762,993.918762 180.176849,987.737793 
	C183.320145,969.218201 186.464661,950.756470 192.250427,932.758545 
	C196.986481,918.025879 197.716385,902.353882 200.857834,887.226379 
	C201.756622,882.898254 200.605331,880.683960 197.028748,878.803406 
	C191.535751,875.915222 189.340897,871.701721 190.104202,865.725037 
	C190.924911,859.298950 193.042053,853.257568 197.735703,848.710205 
	C201.413895,845.146606 202.008743,841.828308 199.903168,837.196533 
	C192.950317,821.901855 193.682297,806.434021 200.005066,791.166382 
	C204.668976,779.904297 210.336807,769.086670 217.680756,759.346313 
	C222.015411,753.597290 223.362625,747.542542 222.778809,740.626587 
	C222.471573,736.987244 221.064529,734.979004 217.363937,733.966736 
	C211.066177,732.244019 209.476898,729.662109 209.782486,722.944702 
	C209.957169,719.104431 210.394089,715.167419 209.108276,711.539795 
	C206.919540,705.364746 207.489548,699.445068 209.624466,693.475037 
	C211.140930,689.234497 211.062119,685.035583 209.463226,680.786255 
	C200.808685,657.785156 197.081436,633.903198 196.887024,609.408997 
	C196.844315,604.028076 196.463211,598.656311 193.863754,593.872620 
	C191.576569,589.663513 191.208328,585.372314 191.961700,580.837402 
	C192.276871,578.940186 192.565430,577.161377 189.713913,576.554504 
	C189.220734,577.967651 188.781296,579.355225 188.256256,580.709595 
	C185.448074,587.953613 183.734940,595.584290 181.089539,602.821228 
	C177.934113,611.453491 175.190338,620.088623 173.237457,629.060486 
	C171.710571,636.075256 172.440552,643.780884 167.145462,649.778931 
	C165.753067,651.356140 166.480286,653.546753 167.023865,655.539124 
	C168.687393,661.636047 170.261398,667.758728 171.778793,673.893982 
	C173.692322,681.630920 174.090714,689.083984 167.590210,695.218506 
	C166.125763,696.600464 165.984879,698.592102 166.548492,700.379822 
	C168.498077,706.563782 166.095581,710.642029 160.700317,713.575012 
	C156.782532,715.704773 155.795517,719.051697 156.823364,723.347595 
	C157.832596,727.565674 159.601349,731.195435 163.212753,733.719299 
	C170.217255,738.614624 171.922226,745.451477 170.737579,753.489685 
	C169.177673,764.074036 164.585175,773.450806 159.581573,782.723755 
	C152.842072,795.213806 149.807098,808.262695 152.386337,822.646851 
	C156.234848,844.109924 148.680466,862.469116 134.582916,878.159973 
	C123.775742,890.188538 103.446663,885.747620 98.350296,870.417603 
	C90.633751,847.205994 90.060959,824.058350 100.579529,801.313293 
	C103.163010,795.726807 105.211960,789.895508 107.660133,784.243225 
	C109.363640,780.310303 108.640755,777.761230 104.501640,775.873474 
	C96.600838,772.270081 89.418221,767.361938 82.188385,762.597839 
	C74.888634,757.787598 68.266273,751.408691 67.121216,742.867249 
	C65.909912,733.831665 63.639397,725.317810 60.840458,716.794800 
	C58.603783,709.983948 59.519573,703.625000 63.932571,697.912354 
	C65.405197,696.006042 65.843315,694.149353 64.792915,691.909973 
	C63.091385,688.282166 63.992233,684.808350 66.607124,682.227661 
	C70.327049,678.556580 69.766327,675.987488 65.821060,673.001282 
	C60.095570,668.667542 57.119694,662.658386 56.281231,655.526672 
	C55.487064,648.771790 56.769955,642.280273 58.453262,635.810730 
	C60.162991,629.239685 59.688225,628.614258 52.996773,628.330078 
	C45.170238,627.997681 40.957420,624.403015 40.103580,616.698975 
	C39.096478,607.612122 38.613991,598.467468 37.623947,589.378357 
	C35.789013,572.532776 34.900574,555.615845 32.269562,538.810730 
	C30.564444,527.919495 28.141405,515.864380 42.251240,509.057983 
	C52.043388,504.334442 59.323742,506.673767 59.959419,517.468994 
	C60.327652,523.722473 61.866879,528.604248 66.958824,532.556396 
	C74.015793,530.425964 79.364464,526.305725 80.857353,518.278809 
	C81.251793,516.158020 81.803474,514.062866 82.360970,511.976807 
	C83.421982,508.006744 83.609718,504.377777 79.283401,502.044189 
	C78.064232,501.386566 77.584114,500.053467 77.193184,498.745911 
	C73.259537,485.589325 68.738403,472.665741 68.325119,458.600922 
	C68.136475,452.181183 68.190292,446.028076 69.845459,439.893982 
	C71.233170,434.751068 72.864197,429.674164 72.926399,424.270233 
	C72.960426,421.314453 74.412125,419.629120 77.460197,419.416779 
	C83.792030,418.975647 90.732727,416.901093 93.565910,425.602905 
	C93.624825,425.783844 94.161293,425.809326 94.476135,425.903564 
	C99.033867,421.049316 98.980011,420.010376 93.973892,416.770844 
	C89.867516,414.113556 88.169250,410.086517 89.154373,405.587921 
	C90.069389,401.409485 88.489090,400.024261 84.941467,398.727509 
	C80.614853,397.145966 75.430168,396.707855 72.363594,392.992767 
	C66.058144,385.353790 62.204372,376.640381 63.232208,366.367859 
	C64.160126,357.093964 64.853325,347.812225 64.689026,338.474609 
	C64.625130,334.843079 63.178028,334.065308 59.995163,335.418182 
	C54.940777,337.566528 49.936264,339.882385 44.751366,341.663788 
	C31.160574,346.333221 19.350904,342.497162 10.672168,331.129211 
	C6.038525,325.059753 3.264429,318.170074 1.000000,311.000000 
	C1.000000,303.312408 1.000000,295.624847 1.119243,287.124268 
	C2.776024,279.407715 6.083786,273.332764 9.802968,267.394958 
	C11.663270,264.424896 12.641783,260.966553 13.009650,257.474518 
	C13.803651,249.937286 17.183376,243.571747 21.325396,237.417480 
	C27.369268,228.437469 33.189281,219.306885 39.116856,210.248428 
	C40.611626,207.964142 42.131351,205.815536 39.591423,203.148148 
	C38.092709,201.574249 38.893520,200.220306 40.602657,199.105942 
	C54.473721,190.061981 69.603035,182.962372 82.313484,172.114594 
	C83.295570,171.276428 84.699905,170.949020 85.864815,170.306015 
	C89.212517,168.458145 95.726677,168.701248 93.962158,162.982468 
	C92.422249,157.991608 87.303062,161.431870 83.829155,161.816864 
	C79.885323,162.253906 77.443237,160.667099 75.719635,157.426270 
	C73.902466,154.009491 75.240005,150.942261 76.936813,147.989410 
	C85.317787,133.404526 93.692001,118.815514 102.147743,104.273964 
	C107.484520,95.096161 110.397812,94.624435 119.009285,101.064903 
	C130.747604,109.843933 142.552124,118.534531 154.280121,127.327248 
	C156.384399,128.904861 158.047821,129.727066 160.221970,127.277161 
	C162.399704,124.823196 165.492722,123.920631 168.750748,123.630371 
	C170.317947,123.490753 172.186401,123.706833 172.749237,120.856697 
	C170.064850,119.771408 166.630386,119.088806 166.618439,114.993584 
	C166.598328,108.097313 162.956879,104.377075 156.230286,103.099403 
	C152.034485,102.302437 149.227310,99.517113 147.675308,95.465317 
	C144.687622,87.665413 143.824875,79.648727 145.217117,71.431038 
	C145.845215,67.723732 145.897766,64.318878 143.788406,60.887623 
	C141.863480,57.756355 145.110916,43.665600 147.947220,41.206905 
	C148.435150,40.783924 149.104141,40.297245 149.687485,40.299797 
	C154.583557,40.321228 156.364594,36.587868 158.498260,33.207726 
	C166.864685,19.953617 178.060104,10.126904 193.132278,5.227676 
	C198.330368,3.538033 203.705658,2.393526 209.000000,0.999999 
M413.835907,317.324677 
	C417.213043,319.972412 420.474823,322.787811 424.003571,325.215118 
	C426.859100,327.179382 429.406677,325.686310 428.964661,322.251007 
	C428.587799,319.322266 428.928284,316.751343 430.119568,314.099945 
	C431.586853,310.834351 429.811310,310.183411 427.062988,310.912079 
	C423.237000,311.926544 419.449219,313.088531 415.660034,314.236725 
	C414.413788,314.614349 412.954254,314.932220 413.835907,317.324677 
M177.619171,125.533142 
	C174.362518,127.055954 175.137085,129.610992 175.682343,132.344955 
	C178.719193,132.711823 180.310425,131.143738 181.041031,128.802521 
	C181.717789,126.633949 179.988464,125.965935 177.619171,125.533142 
z"
  />
</svg>
