<svg
  version="1.1"
  id="Layer_1"
  xmlns="http://www.w3.org/2000/svg"
  xmlns:xlink="http://www.w3.org/1999/xlink"
  x="0px"
  y="0px"
  width="100px"
  height="100%"
  viewBox="0 0 1024 1024"
  enable-background="new 0 0 1024 1024"
  xml:space="preserve"
>
  <path
    fill="#000000"
    opacity="1.000000"
    stroke="none"
    d="
M537.838806,804.261902 
	C502.728455,795.077515 463.623108,811.977295 445.958344,843.579773 
	C440.537262,853.278198 436.830353,863.494812 434.783234,874.417725 
	C431.562256,891.603943 423.417084,907.052795 417.062561,923.122375 
	C411.982178,935.970093 406.476379,948.648987 401.291809,961.456482 
	C399.827118,965.074768 397.711884,967.324646 393.569519,967.273926 
	C376.574493,967.065735 359.575806,967.045715 342.584747,966.672180 
	C335.734558,966.521606 335.502716,965.685547 335.536621,958.892334 
	C335.556519,954.905579 337.877228,953.807373 341.004608,953.028687 
	C351.982910,950.295410 362.913055,947.355103 373.940491,944.839722 
	C378.297455,943.845825 380.920197,941.614807 382.628143,937.573059 
	C389.175201,922.080017 395.881073,906.654053 402.551331,891.213257 
	C403.960632,887.950867 404.172791,886.284851 399.568756,885.076843 
	C387.634857,881.945801 377.624420,875.627502 371.566254,864.267517 
	C370.656769,862.562134 369.812653,860.179382 367.401337,860.631104 
	C365.150787,861.052612 365.575287,863.427612 365.280426,865.198181 
	C364.734406,868.476624 364.419617,872.128113 360.467651,873.171570 
	C356.481201,874.224121 354.316772,871.246521 352.375641,868.541382 
	C346.918823,860.936768 345.696014,852.340820 347.089996,843.300781 
	C347.464630,840.871155 348.132446,838.173218 351.212280,837.682861 
	C353.923401,837.251282 356.013367,838.537109 357.696014,840.639648 
	C359.110352,842.406799 360.028961,844.708801 362.335022,845.480713 
	C364.731842,844.526672 364.535706,842.578125 364.653870,840.773499 
	C366.270599,816.075439 381.497925,798.347595 406.081451,792.783447 
	C410.153473,791.861755 413.101532,790.865112 414.585236,786.021423 
	C416.778259,778.862122 425.383362,777.957764 430.051147,783.825195 
	C432.859772,787.355652 436.889191,788.205627 440.861816,786.205078 
	C443.271057,784.991821 442.945404,783.083313 442.337799,781.074158 
	C440.713776,775.704041 436.332703,772.695496 429.119812,772.372314 
	C423.068542,772.101257 417.221619,771.207397 411.684174,768.599243 
	C405.876770,765.863953 403.139954,760.922180 401.657227,755.044800 
	C401.078735,752.751709 401.316528,750.644653 403.885712,749.661499 
	C406.574249,748.632812 408.375793,749.687439 409.437988,752.267090 
	C412.574585,759.884644 418.621643,762.758850 426.481720,762.909607 
	C429.634369,762.970093 432.805511,763.314270 435.921021,763.820251 
	C444.032776,765.137817 449.212006,770.066833 451.018188,777.876892 
	C452.158569,782.807922 454.302216,783.713806 458.973755,782.779358 
	C477.847137,779.004395 496.788300,775.568359 515.942566,771.962280 
	C515.811340,768.917297 513.639038,768.697754 511.557343,768.166077 
	C503.584961,766.129822 503.119873,765.635437 504.651215,757.617676 
	C506.272491,749.128967 508.302216,740.717590 510.198853,732.282715 
	C510.535065,730.787354 511.037537,729.209778 509.922791,727.985229 
	C506.768036,724.519897 507.269684,721.059509 509.655548,717.525818 
	C510.773254,715.870422 511.022125,714.112061 510.283630,712.300049 
	C507.383728,705.184387 509.895844,698.967590 513.375977,692.874146 
	C514.611206,690.711365 515.774048,688.504150 516.887634,686.276062 
	C517.497864,685.055054 517.929871,683.624390 516.816467,682.530640 
	C512.289124,678.083496 513.473389,672.585266 513.597168,667.142761 
	C513.753479,660.272522 510.435181,653.949097 509.991455,647.094299 
	C509.754852,643.439514 510.583282,639.454102 507.615906,635.146729 
	C504.580505,643.689697 501.127747,651.236023 502.920776,659.719849 
	C504.037537,665.003845 502.183746,669.674866 500.082458,673.986755 
	C498.859070,676.497253 498.295593,678.158569 500.047241,680.127930 
	C503.928589,684.491821 503.074646,689.209595 500.688568,693.604736 
	C497.868073,698.800110 496.758881,704.111389 497.315948,709.932190 
	C497.847839,715.489380 496.025543,720.427612 492.851166,724.922180 
	C490.664856,728.017822 487.783905,729.768494 483.900208,729.170471 
	C479.860565,728.548401 478.080658,725.546326 477.079529,722.023010 
	C475.036224,714.832092 475.547455,707.717407 479.066589,701.160034 
	C481.590912,696.456360 480.048248,694.115967 475.876526,691.678223 
	C468.376007,687.295349 465.020782,677.570129 467.298187,668.829346 
	C468.211578,665.323669 469.248352,661.713135 465.990906,658.643250 
	C465.435669,658.119995 464.978180,657.129639 465.025055,656.389832 
	C465.332550,651.533691 464.147339,647.951965 459.997894,644.432678 
	C456.887848,641.794922 458.716705,636.192261 457.949738,631.945923 
	C457.007568,626.729309 456.944702,621.358398 456.387604,616.066223 
	C455.970062,612.099731 457.087524,609.113586 461.197998,607.938904 
	C465.200867,606.795044 466.575684,609.314880 467.353302,612.562256 
	C467.606049,613.617676 468.199280,614.395630 469.348114,614.489136 
	C470.725098,614.601196 471.454315,613.691345 472.007660,612.602417 
	C473.170898,610.313171 472.618835,608.174744 471.722992,605.893738 
	C469.453003,600.113464 468.129028,594.289551 469.426300,587.883850 
	C470.220673,583.961365 471.281311,581.249084 475.770233,581.369690 
	C476.169647,575.209229 469.160522,575.218445 467.669220,570.522766 
	C466.253235,566.064209 468.721436,561.552368 466.796936,557.434021 
	C464.982086,556.612122 463.648468,557.481079 462.258728,557.930542 
	C454.449310,560.456604 448.277405,557.283142 446.144012,549.340393 
	C445.145813,545.624023 444.698273,541.441711 446.322357,538.031433 
	C449.242889,531.899109 452.206818,525.665344 454.628876,519.444824 
	C458.648865,509.120422 468.289154,506.080017 475.830627,500.098663 
	C470.054840,498.190857 469.426147,496.602783 472.340942,491.472931 
	C474.398224,487.852264 476.639038,484.332581 478.608154,480.665924 
	C480.681000,476.806183 483.158173,476.199707 486.572296,479.038910 
	C489.260101,481.274109 492.076721,483.355804 494.860382,485.473846 
	C496.423523,486.663269 498.376648,487.591583 499.644409,485.592468 
	C500.733093,483.875580 499.563171,482.110199 498.012207,480.884277 
	C493.254425,477.123688 489.818909,465.882843 493.175018,461.574860 
	C497.487915,456.038727 501.921356,450.180084 509.188232,447.836395 
	C515.122681,445.922424 521.117554,445.713806 526.766479,448.255951 
	C531.247925,450.272644 533.305176,448.883301 535.144958,444.791992 
	C537.667847,439.181488 540.902039,433.900177 541.287659,427.512543 
	C541.556091,423.066345 534.878723,414.842804 530.545959,414.557007 
	C529.002258,414.455200 528.078613,415.474030 527.234131,416.482208 
	C523.604065,420.816101 518.865662,423.721375 513.848022,425.906219 
	C504.912079,429.797302 499.123840,436.983002 493.256744,444.197906 
	C492.514252,445.110901 492.852020,446.022339 492.950348,447.019135 
	C493.519592,452.790771 490.131805,458.067749 484.700439,460.363403 
	C482.421234,461.326752 481.284332,460.625519 480.574738,458.443481 
	C479.891418,456.342163 479.421600,454.170441 479.964417,452.049591 
	C481.449036,446.249054 483.111908,440.493652 484.743927,434.731598 
	C485.594910,431.727051 488.144623,430.347046 490.545502,428.827209 
	C496.322144,425.170471 501.994415,421.382202 506.876801,416.524048 
	C509.596466,413.817871 510.168243,411.059479 508.162079,407.584015 
	C504.417999,401.097809 500.996277,394.426239 497.293884,387.915100 
	C493.261383,380.823395 491.741821,373.152954 493.119629,365.273743 
	C493.898468,360.819824 492.243683,358.435669 489.194977,355.982025 
	C484.602234,352.285767 479.336517,349.784241 474.126343,347.213470 
	C463.875153,342.155426 454.394653,336.130280 446.849518,327.351044 
	C444.684967,324.832458 441.985504,322.777985 439.772552,320.295685 
	C434.621490,314.517731 429.078888,310.752777 420.588165,312.869812 
	C416.907471,313.787537 412.674744,312.461273 408.689728,312.200165 
	C406.553925,312.060272 404.394653,311.878937 402.220032,312.771240 
	C401.868164,316.449036 403.198853,319.542480 404.937256,322.304047 
	C407.479309,326.342224 411.579926,329.292694 413.102478,334.112152 
	C413.521179,335.437378 415.162598,335.606750 416.446808,336.017609 
	C422.410980,337.925598 425.490448,343.390564 424.189728,349.561066 
	C423.638519,352.176025 422.320007,353.406403 419.582367,352.325348 
	C419.427490,352.264252 419.239136,352.241211 419.122223,352.137451 
	C411.817261,345.654510 402.519806,340.996765 399.053345,330.961761 
	C397.414581,326.217712 395.573669,321.688721 392.794678,317.437256 
	C387.419098,309.213440 390.561432,301.864197 400.057800,299.519470 
	C405.871490,298.084015 411.637970,296.454559 417.462250,295.065765 
	C419.773926,294.514557 421.163361,293.542847 420.555084,290.988129 
	C417.509705,278.197205 416.060455,265.125519 413.720795,252.210403 
	C412.681152,246.471680 409.388885,242.992279 403.812866,241.635239 
	C395.778748,239.679962 387.942383,236.768463 379.324799,239.265656 
	C374.723267,240.599091 367.152618,235.341965 364.091522,229.608124 
	C366.999023,227.069534 370.718658,227.253723 374.208771,226.500641 
	C388.657928,223.382874 401.830505,228.674622 415.197998,232.545685 
	C418.558472,233.518829 420.406616,236.536819 421.968262,239.561951 
	C424.183990,243.854034 426.374847,248.160202 428.670807,252.409302 
	C431.241394,257.166656 432.695740,257.607819 437.330933,254.795044 
	C446.459747,249.255417 453.592865,241.713791 460.131012,231.544083 
	C452.123505,236.035797 444.013275,235.482407 436.991608,239.144775 
	C432.249786,241.617996 425.058167,235.445587 425.844391,230.105469 
	C425.940277,229.454056 426.084290,228.758835 426.406281,228.199127 
	C432.646271,217.352036 438.576599,206.288834 446.471832,196.513046 
	C450.412476,191.633759 453.939362,186.276459 459.207794,183.003906 
	C461.685516,182.761627 461.560242,185.441666 463.231140,185.913727 
	C465.403564,185.345642 466.588196,182.499878 469.232361,183.112976 
	C469.544342,183.456039 469.972626,183.725525 469.941284,183.921570 
	C468.723572,191.540070 473.448059,194.845001 479.616486,196.523758 
	C487.176575,198.581268 491.873749,204.328003 496.396790,209.760117 
	C499.420288,213.391342 500.054352,218.988434 500.039368,223.845718 
	C500.030304,226.790710 499.644135,229.788116 500.316040,232.657578 
	C501.853333,239.222656 496.461365,244.886780 498.457062,252.481918 
	C499.930939,244.814148 504.075378,241.610977 511.114136,241.498016 
	C513.218262,241.464249 515.286194,239.172119 518.080383,237.486542 
	C511.353027,234.723495 511.804108,229.287338 511.562683,224.174438 
	C511.513031,223.122742 511.362274,222.234985 510.580902,221.472839 
	C509.996948,220.903275 508.946442,219.840393 509.070312,219.659668 
	C511.776642,215.710815 508.184235,211.887466 508.906372,208.107971 
	C509.640869,204.264038 512.459900,202.400864 516.274292,203.042633 
	C523.119080,204.194260 529.241516,207.310913 534.878967,211.212341 
	C537.985962,213.362503 538.513306,216.482132 535.464172,219.227798 
	C530.985718,223.260529 533.159607,228.230682 533.503845,232.796341 
	C533.677307,235.096634 536.029358,234.891083 537.241455,233.329041 
	C541.732239,227.541626 546.327087,221.716156 546.676025,213.931152 
	C547.004028,206.612778 546.614136,199.281219 547.302673,191.955917 
	C547.630493,188.468536 546.702454,185.027893 544.718872,181.959717 
	C543.016296,179.326141 541.994934,176.366547 543.765686,173.484756 
	C545.830933,170.123566 545.194580,166.789307 544.399780,163.388428 
	C536.829712,130.999100 529.220276,98.618988 521.654114,66.228752 
	C519.967285,59.007614 520.041382,59.354446 527.194702,60.631199 
	C536.684387,62.324947 546.303772,63.273663 555.690247,65.616577 
	C564.615356,67.844322 573.220825,70.940559 581.417969,75.091263 
	C587.253235,78.046013 588.307617,80.265320 586.229492,86.271851 
	C584.771790,90.485123 586.216064,92.165878 590.203918,92.708282 
	C597.290649,93.672180 604.420349,94.425522 611.438293,95.760475 
	C618.906616,97.181137 620.517456,99.888100 618.074768,106.894127 
	C616.596924,111.133072 618.815002,112.467529 621.999756,113.229347 
	C627.496277,114.544167 633.068665,115.538727 638.584656,116.777039 
	C640.689819,117.249626 642.791565,117.866714 644.785522,118.684486 
	C660.085327,124.959320 664.293457,129.213715 663.949951,144.009186 
	C663.656067,156.664581 661.639526,168.829712 654.518005,179.718170 
	C652.491150,182.817184 650.739929,183.789062 648.067993,180.591217 
	C640.161072,171.127975 629.532410,169.391434 618.171753,170.659439 
	C608.953064,171.688385 599.911499,171.430115 590.889771,169.340652 
	C582.995605,167.512329 580.921387,164.979462 580.930054,156.929718 
	C580.930237,156.763062 580.930481,156.596405 580.931396,156.429749 
	C580.985046,146.684616 580.985046,146.684616 571.324097,146.381378 
	C562.388123,146.100861 561.073914,144.915741 560.802368,135.854340 
	C560.702820,132.533951 559.711304,131.606918 556.303162,132.032288 
	C543.221436,133.665054 542.540039,134.444183 545.387512,146.877396 
	C546.427368,151.417679 547.469727,155.957520 548.542847,160.490005 
	C549.483337,164.462265 550.218445,168.090073 554.190735,170.959396 
	C558.005554,173.715012 559.725586,179.184494 557.949219,183.686005 
	C554.965942,191.246078 557.402344,198.150421 558.940430,205.183838 
	C562.599854,221.916931 566.573364,238.581345 570.423889,255.272598 
	C570.611084,256.084015 570.908875,256.876160 571.027710,257.695770 
	C571.266602,259.343933 571.710449,261.346008 569.547424,261.880035 
	C567.362793,262.419403 566.731873,260.430298 566.335205,258.844147 
	C564.397888,251.098679 562.558044,243.328751 560.707031,235.561905 
	C560.220215,233.519455 559.816345,231.457230 558.883179,229.373047 
	C552.865417,243.640549 545.268616,257.198395 543.428894,272.810120 
	C543.274292,274.121948 543.105347,275.529510 543.916931,276.700470 
	C548.471802,283.272583 546.460266,291.308929 543.474487,296.113861 
	C538.994690,303.323029 538.650574,312.505127 531.107056,318.433075 
	C536.821045,322.976379 541.989319,327.063721 547.133362,331.181458 
	C553.853943,336.561188 559.935730,342.343933 561.590515,351.422913 
	C562.182678,354.671967 565.228943,355.686523 567.991882,356.307434 
	C583.209351,359.727020 590.486755,370.683136 594.832397,384.402374 
	C595.633545,386.931702 595.934265,389.481842 593.619080,391.805847 
	C591.649658,393.782806 591.942993,396.805939 591.491272,399.366302 
	C590.143860,407.002350 586.485474,413.432617 581.680237,419.292786 
	C580.453369,420.789001 579.170532,423.282990 576.541321,420.628510 
	C575.599915,419.678162 574.750671,421.015533 574.061707,421.588104 
	C568.596313,426.129761 562.404114,428.628571 555.232727,428.355621 
	C552.698242,428.259155 551.113037,429.317352 550.389038,431.735779 
	C550.150513,432.532471 549.828003,433.303589 549.559692,434.091766 
	C548.169128,438.176880 545.403076,442.389435 545.760864,446.316681 
	C546.168762,450.794220 552.255188,451.271698 555.442749,454.071381 
	C557.509399,455.886536 558.944214,457.656189 557.568604,460.490479 
	C556.224243,463.260651 553.863525,463.581329 551.213074,463.043945 
	C550.091614,462.816559 549.009094,462.397247 547.731384,462.011566 
	C545.254333,465.585846 547.111084,470.679382 542.010193,473.572662 
	C538.300171,475.677063 541.334534,481.627991 539.415344,486.027344 
	C535.302490,495.455231 535.994568,495.757141 538.054688,497.806152 
	C539.407288,496.734009 537.573120,494.787018 539.306946,493.696167 
	C541.823853,493.450195 542.055969,495.544403 542.283386,497.244720 
	C543.055420,503.016388 545.837646,506.736694 550.800415,510.319550 
	C554.423584,512.935242 558.231018,517.114929 559.583679,522.347351 
	C561.307495,529.015747 563.218628,535.444519 571.566406,537.184631 
	C573.691040,537.627502 575.530457,540.593323 577.004822,542.740479 
	C579.460144,546.316345 582.401733,547.046936 586.407043,545.780029 
	C588.135071,545.233459 590.449524,543.828308 591.976257,545.893921 
	C593.636841,548.140564 591.765381,550.100586 590.394653,551.627014 
	C586.948975,555.464172 587.834778,557.937683 591.964050,560.685547 
	C598.194397,564.831726 604.054749,569.537842 610.026184,574.066711 
	C611.560608,575.230469 613.760193,576.413391 612.112915,578.850220 
	C610.328003,581.490723 608.231628,579.986267 606.533997,578.683594 
	C601.380127,574.728943 596.364014,570.595215 591.235657,566.606506 
	C588.641907,564.589172 586.244568,562.123962 582.473755,562.406799 
	C581.775940,562.459167 580.456116,561.840515 580.379578,561.374512 
	C579.611023,556.693420 576.199402,557.841003 572.776672,557.981750 
	C574.955994,564.293945 575.518372,570.477417 569.941345,575.341919 
	C564.166565,580.378845 558.368896,576.803345 552.482056,574.517273 
	C550.855591,578.423096 548.570312,580.880737 544.390320,581.183777 
	C542.022644,581.355408 541.165405,583.370850 541.306274,585.600769 
	C541.537109,589.256653 541.695435,592.946777 544.540405,595.811340 
	C546.290283,597.573242 547.391418,600.054504 546.693420,602.212097 
	C543.722900,611.395569 548.100891,619.892395 548.660950,628.718933 
	C549.261414,638.182007 550.504700,647.549316 551.799316,656.932373 
	C552.359924,660.995422 550.781677,664.887146 547.427429,667.608887 
	C544.892273,669.665894 544.287781,671.998718 545.172241,675.111694 
	C547.464905,683.180542 546.613953,690.903931 542.260620,698.191772 
	C540.593933,700.981995 540.075256,704.080017 540.343933,707.336243 
	C540.675232,711.351868 540.858887,715.352844 538.058777,718.774109 
	C536.927246,720.156555 537.755981,721.585266 538.085022,723.040344 
	C538.765259,726.048096 537.612732,728.180725 534.774414,729.501343 
	C529.329956,732.034424 526.317078,738.767334 526.737976,744.674683 
	C527.364563,753.467712 532.811279,758.672913 539.375183,763.660645 
	C539.982239,762.488159 540.503357,761.307983 541.172241,760.218506 
	C544.938354,754.084045 553.022949,754.029968 556.664856,760.307922 
	C558.132385,762.837524 559.502869,763.897034 562.564392,763.312073 
	C583.788086,759.256653 605.064758,755.477417 626.277649,751.367676 
	C632.368225,750.187683 637.845886,747.212769 643.073669,743.858887 
	C645.190918,742.500671 645.675903,740.877014 645.203918,738.362061 
	C643.920288,731.521912 646.477173,726.918396 651.765137,725.822632 
	C656.766785,724.786194 661.219971,727.911499 662.936218,734.198608 
	C669.331970,757.628479 675.630127,781.085327 681.866821,804.558105 
	C683.454651,810.534058 681.031067,815.511719 676.063171,817.298401 
	C671.443420,818.959961 666.724243,816.640320 664.447205,810.651306 
	C662.837036,806.416382 659.768494,805.677002 656.200623,805.786865 
	C650.380249,805.965881 644.653809,806.721985 639.091064,808.823975 
	C621.959412,815.297546 604.701843,821.438538 587.592163,827.968323 
	C583.158630,829.660278 579.999695,829.408081 576.457947,825.842957 
	C565.801025,815.115723 553.140625,807.672668 537.838806,804.261902 
M558.701355,415.294678 
	C561.174438,414.349762 563.519470,412.851746 563.133423,410.010773 
	C562.661194,406.535065 559.299133,410.134857 557.219543,407.736938 
	C562.922302,402.528107 562.635986,395.372223 562.924438,388.238739 
	C563.203857,381.330383 564.785889,374.333405 559.834961,367.446228 
	C555.200317,377.280548 550.032532,385.738983 543.096191,393.033722 
	C542.242493,393.931580 541.633972,395.327087 541.464417,396.567535 
	C540.441956,404.046906 550.228760,415.174072 558.701355,415.294678 
M497.764862,278.411835 
	C496.814117,281.359528 497.787292,283.017029 500.902893,283.459503 
	C502.185486,278.405151 502.144440,278.325439 497.764862,278.411835 
z"
  />
  <path
    fill="#000000"
    opacity="1.000000"
    stroke="none"
    d="
M551.361206,959.513062 
	C503.495514,980.804810 448.957794,951.567871 439.638885,900.387085 
	C430.478760,850.078369 471.867157,802.937073 523.029419,805.741272 
	C560.731079,807.807678 592.789429,838.664368 597.577026,876.374207 
	C601.926880,910.635925 581.950867,946.027832 551.361206,959.513062 
M524.221680,848.501892 
	C524.568359,855.648682 523.619934,862.882935 524.983398,871.271973 
	C535.500549,862.835083 544.212341,854.466553 552.879883,846.063110 
	C554.522400,844.470581 553.120300,843.048584 551.701599,841.959290 
	C544.846191,836.695374 537.039307,833.543823 528.693665,831.587341 
	C525.811462,830.911621 524.194397,831.783691 524.242676,835.017456 
	C524.304871,839.178406 524.236328,843.341370 524.221680,848.501892 
M511.319183,869.964844 
	C513.966003,858.006592 512.424194,845.931274 512.220703,833.902954 
	C512.181030,831.557678 510.163208,831.240417 508.095917,831.664917 
	C500.008942,833.325623 492.603882,836.504089 485.861664,841.296875 
	C482.918335,843.389221 482.884552,845.324524 485.549744,847.634460 
	C488.686859,850.353394 491.645447,853.282715 494.837585,855.932739 
	C500.310669,860.476318 504.430176,866.521667 511.319183,869.964844 
M531.210999,906.264099 
	C529.355469,904.845215 528.197205,902.210022 525.392883,902.578430 
	C523.890259,903.987061 524.263062,905.571838 524.257812,907.006042 
	C524.222778,916.629150 524.413940,926.256287 524.184692,935.873901 
	C524.076904,940.396179 526.056030,941.439575 529.953491,940.564575 
	C537.502441,938.869751 544.312622,935.613159 550.647339,931.173584 
	C553.782959,928.976135 554.017456,927.241882 551.103760,924.640320 
	C544.547058,918.786255 538.169617,912.731506 531.210999,906.264099 
M512.590881,924.362427 
	C512.589722,918.214783 512.669189,912.065674 512.552551,905.920227 
	C512.496033,902.943909 511.174591,901.012756 508.306732,903.638428 
	C500.469513,910.814087 492.834076,918.209961 485.106934,925.506042 
	C483.281952,927.229309 483.073059,928.945923 485.256378,930.427856 
	C492.165436,935.117188 499.399292,939.128235 507.775940,940.564636 
	C510.738831,941.072693 512.078369,939.806274 512.106567,936.769348 
	C512.141968,932.952698 512.415161,929.138245 512.590881,924.362427 
M554.499756,892.305908 
	C548.312195,892.305908 542.124634,892.305908 535.937012,892.305908 
	C535.832947,892.787170 535.728821,893.268433 535.624756,893.749695 
	C544.035889,901.442505 552.430725,909.153259 560.871948,916.812927 
	C562.549500,918.335083 564.029846,917.458740 565.034363,915.902222 
	C568.853271,909.984741 571.614502,903.630127 572.706360,896.614990 
	C573.232056,893.237122 571.619507,892.176331 568.463074,892.276306 
	C564.145508,892.413147 559.820312,892.306763 554.499756,892.305908 
M495.963562,892.332764 
	C486.799011,892.325806 477.630890,892.467102 468.471375,892.249207 
	C463.895477,892.140381 462.980713,893.786987 464.291931,897.949524 
	C466.047058,903.521423 467.950836,908.994141 470.681549,914.176880 
	C472.350647,917.344849 474.065887,918.376160 477.131866,915.541382 
	C484.223389,908.984741 491.502350,902.630981 498.679840,896.166748 
	C499.520538,895.409546 500.449219,894.586426 499.975830,892.989868 
	C499.130127,892.249390 497.935944,892.403137 495.963562,892.332764 
M572.553223,875.791870 
	C571.511719,869.117126 568.556335,863.192322 565.434814,857.308960 
	C563.736511,854.108032 562.098022,853.806274 559.405823,856.408936 
	C552.965393,862.635071 546.284851,868.612305 539.770508,874.763367 
	C538.418762,876.039673 536.259827,876.727417 536.016724,879.794250 
	C547.552979,879.794250 558.930664,879.828857 570.307800,879.760071 
	C572.206238,879.748596 572.713135,878.283691 572.553223,875.791870 
M469.668610,860.205444 
	C466.994293,866.208496 464.039215,872.131042 463.867065,879.409729 
	C476.372101,879.409729 488.454041,879.409729 501.809509,879.409729 
	C492.117920,870.416504 483.324188,862.256470 474.573822,854.136658 
	C471.941681,855.712219 471.134308,857.760986 469.668610,860.205444 
z"
  />
  <path
    fill="#000000"
    opacity="1.000000"
    stroke="none"
    d="
M425.434998,966.725037 
	C427.349304,963.439026 429.502991,964.653992 432.070221,966.082153 
	C429.978241,968.916077 427.845123,968.439941 425.434998,966.725037 
z"
  />
</svg>
